<?xml version="1.0" encoding="utf-8"?>
<!-- Generator: Adobe Illustrator 27.1.1, SVG Export Plug-In . SVG Version: 6.00 Build 0)  -->
<svg version="1.1" id="Layer_1" xmlns="http://www.w3.org/2000/svg" xmlns:xlink="http://www.w3.org/1999/xlink" x="0px" y="0px"
	 viewBox="0 0 26.4 24" style="enable-background:new 0 0 26.4 24;" xml:space="preserve">
<style type="text/css">
	.st0{fill:#E6E6E6;}
	.st1{fill:#1A1A1A;}
	.st2{font-family:'MyriadPro-Regular';}
	.st3{font-size:12.9378px;}
</style>
<g>
	<path class="st0" d="M13,22.2c-6.7,0-12.2-4.8-12.2-10.7S6.3,0.8,13,0.8s12.2,4.8,12.2,10.7S19.7,22.2,13,22.2z"/>
	<path class="st0" d="M13,1.3c6.4,0,11.6,4.6,11.6,10.2S19.4,21.7,13,21.7S1.4,17.1,1.4,11.5S6.6,1.3,13,1.3 M13,0.3
		c-7.1,0-12.8,5-12.8,11.2S5.9,22.7,13,22.7s12.8-5,12.8-11.2S20.1,0.3,13,0.3L13,0.3z"/>
</g>
<text transform="matrix(0.9904 0 0 1 8.9238 15.8223)" class="st1 st2 st3">A</text>
</svg>
